<?xml version="1.0" encoding="iso-8859-1"?>
<!-- Generator: Adobe Illustrator 21.0.2, SVG Export Plug-In . SVG Version: 6.00 Build 0)  -->
<svg xmlns="http://www.w3.org/2000/svg" xmlns:xlink="http://www.w3.org/1999/xlink" version="1.1" id="Layer_1" x="0px" y="0px" viewBox="0 0 40 40" style="enable-background:new 0 0 40 40;" xml:space="preserve">
<g>
	<path style="fill:#DFF0FE;" d="M10,38.5c-1.93,0-3.5-1.57-3.5-3.5V8.5h24v6.017l0.712-0.333c0.964-0.451,1.876-0.681,2.711-0.683   c0.919,0,1.75,0.369,2.479,1.098c1.544,1.545,1.441,6.114-0.284,12.536c-0.533,1.982-2.331,3.366-4.373,3.366H30.5V35   c0,1.93-1.57,3.5-3.5,3.5H10z M32.714,16.877c-0.945,0-1.798,0.84-2.142,1.404l-0.073,0.12V27.5h1.246   c0.688,0,1.294-0.471,1.475-1.145c1.588-5.913,1.686-8.322,0.371-9.208C33.325,16.968,33.03,16.877,32.714,16.877z"/>
	<path style="fill:#4788C7;" d="M30,9v4.73v1.572l1.424-0.666c0.898-0.42,1.74-0.634,2.508-0.636c0.784,0,1.476,0.311,2.116,0.951   c1.394,1.394,1.24,5.9-0.413,12.053C35.162,28.768,33.562,30,31.746,30H31h-1v1v4c0,1.654-1.346,3-3,3H10c-1.654,0-3-1.346-3-3V9   H30 M30,28h1h0.746c0.913,0,1.719-0.623,1.958-1.514c1.678-6.246,1.72-8.707,0.167-9.752c-0.351-0.236-0.74-0.356-1.157-0.356   c-1.241,0-2.223,1.076-2.569,1.645L30,18.261v0.28V27V28 M31,8H6v27c0,2.209,1.791,4,4,4h17c2.209,0,4-1.791,4-4v-4h0.746   c2.28,0,4.264-1.534,4.855-3.736c1.132-4.213,2.406-10.768,0.154-13.02C35.846,13.334,34.871,13,33.932,13c-0.003,0-0.006,0-0.01,0   c-1.073,0.003-2.088,0.34-2.923,0.73V8L31,8z M31,27v-8.459c0.277-0.456,0.991-1.164,1.714-1.164c0.202,0,0.404,0.055,0.598,0.186   c1.021,0.688,0.97,2.916-0.574,8.664C32.616,26.682,32.208,27,31.746,27H31L31,27z"/>
</g>
<g>
	<g>
		<path style="fill:#B6DCFE;" d="M7,15v20h23V15H7z M17.5,24c-0.828,0-1.5-0.672-1.5-1.5c0-0.828,0.672-1.5,1.5-1.5    s1.5,0.672,1.5,1.5C19,23.328,18.328,24,17.5,24z M22.5,28c-0.828,0-1.5-0.672-1.5-1.5c0-0.828,0.672-1.5,1.5-1.5    s1.5,0.672,1.5,1.5C24,27.328,23.328,28,22.5,28z M17.5,32c-0.828,0-1.5-0.672-1.5-1.5c0-0.828,0.672-1.5,1.5-1.5    s1.5,0.672,1.5,1.5C19,31.328,18.328,32,17.5,32z"/>
	</g>
</g>
<path style="fill:none;stroke:#F7FCFF;stroke-linecap:round;stroke-miterlimit:10;" d="M11.5,31.5c0-8.466,0-19,0-19"/>
<g>
	<g>
		<path style="fill:#FFFFFF;" d="M21.5,17.5c-0.181,0-0.365-0.024-0.546-0.072c-0.651-0.17-1.189-0.699-1.372-1.347    c-0.172-0.613-0.071-1.226,0.285-1.726c0.42-0.588,0.633-1.186,0.633-1.777V12c0-1.93-1.57-3.5-3.5-3.5H8.5c-1.654,0-3-1.346-3-3    s1.346-3,3-3c0.672,0,1.316,0.231,1.863,0.668l0.425,0.339l0.303-0.452C11.744,2.082,12.831,1.5,14,1.5    c0.791,0,1.547,0.273,2.186,0.79L16.5,2.543l0.314-0.253C17.453,1.773,18.209,1.5,19,1.5s1.547,0.273,2.186,0.79L21.5,2.543    l0.314-0.253C22.453,1.773,23.209,1.5,24,1.5c1.002,0,1.928,0.423,2.609,1.19l0.251,0.284l0.341-0.166    C27.624,2.604,28.061,2.5,28.5,2.5c1.654,0,3,1.346,3,3s-1.346,3-3,3H26c-1.93,0-3.5,1.57-3.5,3.5v0.608    c0,0.582,0.21,1.165,0.624,1.734c0.246,0.34,0.376,0.74,0.376,1.158C23.5,16.603,22.603,17.5,21.5,17.5z"/>
	</g>
	<g>
		<path style="fill:#4788C7;" d="M24,2c0.857,0,1.651,0.363,2.235,1.022l0.502,0.567l0.682-0.33C27.774,3.087,28.137,3,28.5,3    C29.878,3,31,4.122,31,5.5C31,6.879,29.878,8,28.5,8H26c-2.206,0-4,1.794-4,4v0.609c0,0.689,0.242,1.371,0.718,2.027    C22.903,14.89,23,15.189,23,15.5c0,0.827-0.673,1.5-1.5,1.5c-0.138,0-0.28-0.019-0.42-0.055c-0.475-0.124-0.883-0.525-1.016-0.999    c-0.13-0.465-0.056-0.926,0.211-1.3C20.756,13.971,21,13.275,21,12.578V12c0-2.206-1.794-4-4-4H8.5C7.121,8,6,6.879,6,5.5    C6,4.122,7.121,3,8.5,3c0.705,0,1.232,0.304,1.55,0.559l0.85,0.68l0.606-0.905C12.066,2.499,12.998,2,14,2    c0.675,0,1.322,0.235,1.872,0.678L16.5,3.186l0.628-0.508C17.678,2.235,18.325,2,19,2s1.322,0.235,1.872,0.678L21.5,3.186    l0.628-0.508C22.678,2.235,23.325,2,24,2 M24,1c-0.951,0-1.813,0.346-2.5,0.901C20.813,1.346,19.951,1,19,1    s-1.813,0.346-2.5,0.901C15.813,1.346,14.951,1,14,1c-1.387,0-2.607,0.706-3.325,1.778C10.076,2.299,9.327,2,8.5,2    C6.567,2,5,3.567,5,5.5C5,7.433,6.567,9,8.5,9H17c1.657,0,3,1.343,3,3v0.578c0,0.544-0.224,1.045-0.54,1.487    c-0.414,0.58-0.586,1.342-0.359,2.151c0.23,0.818,0.905,1.482,1.727,1.696C21.056,17.972,21.281,18,21.5,18    c1.381,0,2.5-1.119,2.5-2.5c0-0.544-0.176-1.043-0.472-1.451C23.218,13.622,23,13.136,23,12.609V12c0-1.657,1.343-3,3-3h2.5    C30.433,9,32,7.433,32,5.5C32,3.567,30.433,2,28.5,2c-0.546,0-1.056,0.136-1.517,0.359C26.25,1.532,25.192,1,24,1L24,1z"/>
	</g>
</g>
</svg>
